<mxfile host="app.diagrams.net" agent="Mozilla/5.0 (Windows NT 10.0; Win64; x64) AppleWebKit/537.36 (KHTML, like Gecko) Chrome/136.0.0.0 Safari/537.36" version="27.1.1">
  <diagram name="Page-1" id="JTLLLwAnsNbNPX8W_xxM">
    <mxGraphModel dx="2837" dy="1984" grid="1" gridSize="10" guides="1" tooltips="1" connect="1" arrows="1" fold="1" page="0" pageScale="1" pageWidth="827" pageHeight="1169" math="0" shadow="0">
      <root>
        <mxCell id="0" />
        <mxCell id="1" parent="0" />
        <mxCell id="6BM6vpleSpneftJprQCP-1" value="USERS" style="rounded=0;whiteSpace=wrap;html=1;strokeColor=#36393d;fillColor=#cdeb8b;" vertex="1" parent="1">
          <mxGeometry x="40" y="140" width="80" height="40" as="geometry" />
        </mxCell>
        <mxCell id="6BM6vpleSpneftJprQCP-2" value="" style="endArrow=none;html=1;rounded=0;fontSize=12;startSize=8;endSize=8;exitX=1.013;exitY=0.363;exitDx=0;exitDy=0;edgeStyle=orthogonalEdgeStyle;entryX=0;entryY=0.5;entryDx=0;entryDy=0;exitPerimeter=0;strokeColor=#36393d;fillColor=#cdeb8b;" edge="1" parent="1" source="6BM6vpleSpneftJprQCP-1" target="6BM6vpleSpneftJprQCP-3">
          <mxGeometry width="50" height="50" relative="1" as="geometry">
            <mxPoint x="210" y="120" as="sourcePoint" />
            <mxPoint x="230" y="90" as="targetPoint" />
          </mxGeometry>
        </mxCell>
        <mxCell id="6BM6vpleSpneftJprQCP-3" value="id" style="ellipse;whiteSpace=wrap;html=1;strokeColor=#36393d;fillColor=#cdeb8b;" vertex="1" parent="1">
          <mxGeometry x="180" y="10" width="80" height="40" as="geometry" />
        </mxCell>
        <mxCell id="6BM6vpleSpneftJprQCP-4" value="address_id" style="ellipse;whiteSpace=wrap;html=1;strokeColor=#36393d;fillColor=#ffff88;" vertex="1" parent="1">
          <mxGeometry x="180" y="54" width="80" height="40" as="geometry" />
        </mxCell>
        <mxCell id="6BM6vpleSpneftJprQCP-7" value="group_id" style="ellipse;whiteSpace=wrap;html=1;strokeColor=#36393d;fillColor=#f9f7ed;" vertex="1" parent="1">
          <mxGeometry x="180" y="100" width="80" height="40" as="geometry" />
        </mxCell>
        <mxCell id="6BM6vpleSpneftJprQCP-8" value="first_name" style="ellipse;whiteSpace=wrap;html=1;strokeColor=#36393d;fillColor=#cdeb8b;" vertex="1" parent="1">
          <mxGeometry x="180" y="191" width="80" height="40" as="geometry" />
        </mxCell>
        <mxCell id="6BM6vpleSpneftJprQCP-9" value="last_name" style="ellipse;whiteSpace=wrap;html=1;strokeColor=#36393d;fillColor=#cdeb8b;" vertex="1" parent="1">
          <mxGeometry x="180" y="237" width="80" height="40" as="geometry" />
        </mxCell>
        <mxCell id="6BM6vpleSpneftJprQCP-10" value="gender" style="ellipse;whiteSpace=wrap;html=1;strokeColor=#36393d;fillColor=#cdeb8b;" vertex="1" parent="1">
          <mxGeometry x="180" y="283" width="80" height="40" as="geometry" />
        </mxCell>
        <mxCell id="6BM6vpleSpneftJprQCP-11" value="email" style="ellipse;whiteSpace=wrap;html=1;strokeColor=#36393d;fillColor=#cdeb8b;" vertex="1" parent="1">
          <mxGeometry x="-100" y="30" width="80" height="40" as="geometry" />
        </mxCell>
        <mxCell id="6BM6vpleSpneftJprQCP-12" value="role_id" style="ellipse;whiteSpace=wrap;html=1;strokeColor=#36393d;fillColor=#cce5ff;" vertex="1" parent="1">
          <mxGeometry x="180" y="146" width="80" height="40" as="geometry" />
        </mxCell>
        <mxCell id="6BM6vpleSpneftJprQCP-13" value="date_of_birth" style="ellipse;whiteSpace=wrap;html=1;strokeColor=#36393d;fillColor=#cdeb8b;" vertex="1" parent="1">
          <mxGeometry x="-100" y="75" width="80" height="40" as="geometry" />
        </mxCell>
        <mxCell id="6BM6vpleSpneftJprQCP-14" value="phone" style="ellipse;whiteSpace=wrap;html=1;strokeColor=#36393d;fillColor=#cdeb8b;" vertex="1" parent="1">
          <mxGeometry x="-100" y="121" width="80" height="40" as="geometry" />
        </mxCell>
        <mxCell id="6BM6vpleSpneftJprQCP-15" value="photo" style="ellipse;whiteSpace=wrap;html=1;strokeColor=#36393d;fillColor=#cdeb8b;" vertex="1" parent="1">
          <mxGeometry x="-100" y="167" width="80" height="40" as="geometry" />
        </mxCell>
        <mxCell id="6BM6vpleSpneftJprQCP-16" value="user_name" style="ellipse;whiteSpace=wrap;html=1;strokeColor=#36393d;fillColor=#cdeb8b;" vertex="1" parent="1">
          <mxGeometry x="-100" y="213" width="80" height="40" as="geometry" />
        </mxCell>
        <mxCell id="6BM6vpleSpneftJprQCP-17" value="password" style="ellipse;whiteSpace=wrap;html=1;strokeColor=#36393d;fillColor=#cdeb8b;" vertex="1" parent="1">
          <mxGeometry x="-100" y="258" width="80" height="40" as="geometry" />
        </mxCell>
        <mxCell id="6BM6vpleSpneftJprQCP-18" value="" style="endArrow=none;html=1;rounded=0;fontSize=12;startSize=8;endSize=8;exitX=1.013;exitY=0.363;exitDx=0;exitDy=0;edgeStyle=orthogonalEdgeStyle;entryX=0;entryY=0.5;entryDx=0;entryDy=0;exitPerimeter=0;strokeColor=#36393d;fillColor=#cdeb8b;" edge="1" parent="1" source="6BM6vpleSpneftJprQCP-1" target="6BM6vpleSpneftJprQCP-4">
          <mxGeometry width="50" height="50" relative="1" as="geometry">
            <mxPoint x="210" y="120" as="sourcePoint" />
            <mxPoint x="230" y="90" as="targetPoint" />
          </mxGeometry>
        </mxCell>
        <mxCell id="6BM6vpleSpneftJprQCP-19" value="" style="endArrow=none;html=1;rounded=0;fontSize=12;startSize=8;endSize=8;exitX=1.013;exitY=0.363;exitDx=0;exitDy=0;edgeStyle=orthogonalEdgeStyle;entryX=0;entryY=0.5;entryDx=0;entryDy=0;exitPerimeter=0;strokeColor=#36393d;fillColor=#cdeb8b;" edge="1" parent="1" source="6BM6vpleSpneftJprQCP-1" target="6BM6vpleSpneftJprQCP-7">
          <mxGeometry width="50" height="50" relative="1" as="geometry">
            <mxPoint x="210" y="120" as="sourcePoint" />
            <mxPoint x="230" y="90" as="targetPoint" />
          </mxGeometry>
        </mxCell>
        <mxCell id="6BM6vpleSpneftJprQCP-20" value="" style="endArrow=none;html=1;rounded=0;fontSize=12;startSize=8;endSize=8;exitX=1.013;exitY=0.363;exitDx=0;exitDy=0;edgeStyle=orthogonalEdgeStyle;entryX=0;entryY=0.5;entryDx=0;entryDy=0;exitPerimeter=0;strokeColor=#36393d;fillColor=#cdeb8b;" edge="1" parent="1" source="6BM6vpleSpneftJprQCP-1" target="6BM6vpleSpneftJprQCP-12">
          <mxGeometry width="50" height="50" relative="1" as="geometry">
            <mxPoint x="210" y="120" as="sourcePoint" />
            <mxPoint x="230" y="90" as="targetPoint" />
          </mxGeometry>
        </mxCell>
        <mxCell id="6BM6vpleSpneftJprQCP-21" value="" style="endArrow=none;html=1;rounded=0;fontSize=12;startSize=8;endSize=8;exitX=1.013;exitY=0.363;exitDx=0;exitDy=0;edgeStyle=orthogonalEdgeStyle;entryX=0;entryY=0.5;entryDx=0;entryDy=0;exitPerimeter=0;strokeColor=#36393d;fillColor=#cdeb8b;" edge="1" parent="1" source="6BM6vpleSpneftJprQCP-1" target="6BM6vpleSpneftJprQCP-8">
          <mxGeometry width="50" height="50" relative="1" as="geometry">
            <mxPoint x="210" y="120" as="sourcePoint" />
            <mxPoint x="230" y="90" as="targetPoint" />
          </mxGeometry>
        </mxCell>
        <mxCell id="6BM6vpleSpneftJprQCP-22" value="" style="endArrow=none;html=1;rounded=0;fontSize=12;startSize=8;endSize=8;exitX=1.013;exitY=0.363;exitDx=0;exitDy=0;edgeStyle=orthogonalEdgeStyle;entryX=0;entryY=0.5;entryDx=0;entryDy=0;exitPerimeter=0;strokeColor=#36393d;fillColor=#cdeb8b;" edge="1" parent="1" source="6BM6vpleSpneftJprQCP-1" target="6BM6vpleSpneftJprQCP-9">
          <mxGeometry width="50" height="50" relative="1" as="geometry">
            <mxPoint x="210" y="120" as="sourcePoint" />
            <mxPoint x="230" y="90" as="targetPoint" />
          </mxGeometry>
        </mxCell>
        <mxCell id="6BM6vpleSpneftJprQCP-23" value="" style="endArrow=none;html=1;rounded=0;fontSize=12;startSize=8;endSize=8;exitX=1.013;exitY=0.363;exitDx=0;exitDy=0;edgeStyle=orthogonalEdgeStyle;entryX=0;entryY=0.5;entryDx=0;entryDy=0;exitPerimeter=0;strokeColor=#36393d;fillColor=#cdeb8b;" edge="1" parent="1" source="6BM6vpleSpneftJprQCP-1" target="6BM6vpleSpneftJprQCP-10">
          <mxGeometry width="50" height="50" relative="1" as="geometry">
            <mxPoint x="210" y="120" as="sourcePoint" />
            <mxPoint x="230" y="90" as="targetPoint" />
          </mxGeometry>
        </mxCell>
        <mxCell id="6BM6vpleSpneftJprQCP-24" value="" style="endArrow=none;html=1;rounded=0;fontSize=12;startSize=8;endSize=8;exitX=0;exitY=0.5;exitDx=0;exitDy=0;edgeStyle=orthogonalEdgeStyle;entryX=1;entryY=0.5;entryDx=0;entryDy=0;strokeColor=#36393d;fillColor=#cdeb8b;" edge="1" parent="1" source="6BM6vpleSpneftJprQCP-1" target="6BM6vpleSpneftJprQCP-11">
          <mxGeometry width="50" height="50" relative="1" as="geometry">
            <mxPoint x="91.03999999999996" y="172.26" as="sourcePoint" />
            <mxPoint x="-50" y="67.74" as="targetPoint" />
          </mxGeometry>
        </mxCell>
        <mxCell id="6BM6vpleSpneftJprQCP-25" value="" style="endArrow=none;html=1;rounded=0;fontSize=12;startSize=8;endSize=8;exitX=0;exitY=0.5;exitDx=0;exitDy=0;edgeStyle=orthogonalEdgeStyle;entryX=1;entryY=0.5;entryDx=0;entryDy=0;strokeColor=#36393d;fillColor=#cdeb8b;" edge="1" parent="1" source="6BM6vpleSpneftJprQCP-1" target="6BM6vpleSpneftJprQCP-13">
          <mxGeometry width="50" height="50" relative="1" as="geometry">
            <mxPoint x="91.03999999999996" y="172.26" as="sourcePoint" />
            <mxPoint x="-50" y="67.74" as="targetPoint" />
          </mxGeometry>
        </mxCell>
        <mxCell id="6BM6vpleSpneftJprQCP-26" value="" style="endArrow=none;html=1;rounded=0;fontSize=12;startSize=8;endSize=8;exitX=0;exitY=0.5;exitDx=0;exitDy=0;edgeStyle=orthogonalEdgeStyle;entryX=1;entryY=0.5;entryDx=0;entryDy=0;strokeColor=#36393d;fillColor=#cdeb8b;" edge="1" parent="1" source="6BM6vpleSpneftJprQCP-1" target="6BM6vpleSpneftJprQCP-14">
          <mxGeometry width="50" height="50" relative="1" as="geometry">
            <mxPoint x="91.03999999999996" y="172.26" as="sourcePoint" />
            <mxPoint x="-50" y="67.74" as="targetPoint" />
          </mxGeometry>
        </mxCell>
        <mxCell id="6BM6vpleSpneftJprQCP-27" value="" style="endArrow=none;html=1;rounded=0;fontSize=12;startSize=8;endSize=8;exitX=0;exitY=0.5;exitDx=0;exitDy=0;edgeStyle=orthogonalEdgeStyle;entryX=1;entryY=0.5;entryDx=0;entryDy=0;strokeColor=#36393d;fillColor=#cdeb8b;" edge="1" parent="1" source="6BM6vpleSpneftJprQCP-1" target="6BM6vpleSpneftJprQCP-15">
          <mxGeometry width="50" height="50" relative="1" as="geometry">
            <mxPoint x="91.03999999999996" y="172.26" as="sourcePoint" />
            <mxPoint x="-50" y="67.74" as="targetPoint" />
          </mxGeometry>
        </mxCell>
        <mxCell id="6BM6vpleSpneftJprQCP-28" value="" style="endArrow=none;html=1;rounded=0;fontSize=12;startSize=8;endSize=8;exitX=0;exitY=0.5;exitDx=0;exitDy=0;edgeStyle=orthogonalEdgeStyle;entryX=1;entryY=0.5;entryDx=0;entryDy=0;strokeColor=#36393d;fillColor=#cdeb8b;" edge="1" parent="1" source="6BM6vpleSpneftJprQCP-1" target="6BM6vpleSpneftJprQCP-16">
          <mxGeometry width="50" height="50" relative="1" as="geometry">
            <mxPoint x="91.03999999999996" y="172.26" as="sourcePoint" />
            <mxPoint x="-50" y="67.74" as="targetPoint" />
          </mxGeometry>
        </mxCell>
        <mxCell id="6BM6vpleSpneftJprQCP-29" value="" style="endArrow=none;html=1;rounded=0;fontSize=12;startSize=8;endSize=8;exitX=0;exitY=0.5;exitDx=0;exitDy=0;edgeStyle=orthogonalEdgeStyle;entryX=1;entryY=0.5;entryDx=0;entryDy=0;strokeColor=#36393d;fillColor=#cdeb8b;" edge="1" parent="1" source="6BM6vpleSpneftJprQCP-1" target="6BM6vpleSpneftJprQCP-17">
          <mxGeometry width="50" height="50" relative="1" as="geometry">
            <mxPoint x="91.03999999999996" y="172.26" as="sourcePoint" />
            <mxPoint x="-50" y="67.74" as="targetPoint" />
          </mxGeometry>
        </mxCell>
        <mxCell id="6BM6vpleSpneftJprQCP-30" value="GROUPS" style="rounded=0;whiteSpace=wrap;html=1;strokeColor=#36393d;fillColor=#f9f7ed;" vertex="1" parent="1">
          <mxGeometry x="150" y="-80" width="80" height="40" as="geometry" />
        </mxCell>
        <mxCell id="6BM6vpleSpneftJprQCP-31" value="" style="endArrow=none;html=1;rounded=0;fontSize=12;startSize=8;endSize=8;edgeStyle=orthogonalEdgeStyle;entryX=0;entryY=0.5;entryDx=0;entryDy=0;strokeColor=#36393d;fillColor=#cdeb8b;" edge="1" parent="1" target="6BM6vpleSpneftJprQCP-30">
          <mxGeometry width="50" height="50" relative="1" as="geometry">
            <mxPoint x="90" y="140" as="sourcePoint" />
            <mxPoint x="150" y="-154.5199999999999" as="targetPoint" />
            <Array as="points">
              <mxPoint x="90" y="140" />
              <mxPoint x="90" y="-60" />
            </Array>
          </mxGeometry>
        </mxCell>
        <mxCell id="6BM6vpleSpneftJprQCP-32" value="ROLES" style="rounded=0;whiteSpace=wrap;html=1;strokeColor=#36393d;fillColor=#cce5ff;" vertex="1" parent="1">
          <mxGeometry x="150" y="360" width="80" height="40" as="geometry" />
        </mxCell>
        <mxCell id="6BM6vpleSpneftJprQCP-35" value="" style="endArrow=none;html=1;rounded=0;fontSize=12;startSize=8;endSize=8;edgeStyle=orthogonalEdgeStyle;entryX=0;entryY=0.5;entryDx=0;entryDy=0;strokeColor=#36393d;fillColor=#cdeb8b;" edge="1" parent="1" target="6BM6vpleSpneftJprQCP-32">
          <mxGeometry width="50" height="50" relative="1" as="geometry">
            <mxPoint x="90" y="180" as="sourcePoint" />
            <mxPoint x="140" y="277" as="targetPoint" />
            <Array as="points">
              <mxPoint x="90" y="180" />
              <mxPoint x="90" y="380" />
            </Array>
          </mxGeometry>
        </mxCell>
        <mxCell id="6BM6vpleSpneftJprQCP-36" value="id" style="ellipse;whiteSpace=wrap;html=1;strokeColor=#36393d;fillColor=#f9f7ed;" vertex="1" parent="1">
          <mxGeometry x="280" y="-150" width="80" height="40" as="geometry" />
        </mxCell>
        <mxCell id="6BM6vpleSpneftJprQCP-37" value="" style="endArrow=none;html=1;rounded=0;fontSize=12;startSize=8;endSize=8;entryX=0;entryY=0.5;entryDx=0;entryDy=0;exitX=1;exitY=0.5;exitDx=0;exitDy=0;edgeStyle=orthogonalEdgeStyle;" edge="1" parent="1" source="6BM6vpleSpneftJprQCP-30" target="6BM6vpleSpneftJprQCP-36">
          <mxGeometry width="50" height="50" relative="1" as="geometry">
            <mxPoint x="20" y="10" as="sourcePoint" />
            <mxPoint x="70" y="-40" as="targetPoint" />
          </mxGeometry>
        </mxCell>
        <mxCell id="6BM6vpleSpneftJprQCP-38" value="group_name" style="ellipse;whiteSpace=wrap;html=1;strokeColor=#36393d;fillColor=#f9f7ed;" vertex="1" parent="1">
          <mxGeometry x="280" y="-107" width="80" height="40" as="geometry" />
        </mxCell>
        <mxCell id="6BM6vpleSpneftJprQCP-39" value="shift" style="ellipse;whiteSpace=wrap;html=1;strokeColor=#36393d;fillColor=#f9f7ed;" vertex="1" parent="1">
          <mxGeometry x="280" y="-63" width="80" height="40" as="geometry" />
        </mxCell>
        <mxCell id="6BM6vpleSpneftJprQCP-40" value="note" style="ellipse;whiteSpace=wrap;html=1;strokeColor=#36393d;fillColor=#f9f7ed;" vertex="1" parent="1">
          <mxGeometry x="280" y="-20" width="80" height="40" as="geometry" />
        </mxCell>
        <mxCell id="6BM6vpleSpneftJprQCP-41" value="" style="endArrow=none;html=1;rounded=0;fontSize=12;startSize=8;endSize=8;entryX=0;entryY=0.5;entryDx=0;entryDy=0;exitX=1;exitY=0.5;exitDx=0;exitDy=0;edgeStyle=orthogonalEdgeStyle;" edge="1" parent="1" source="6BM6vpleSpneftJprQCP-30" target="6BM6vpleSpneftJprQCP-38">
          <mxGeometry width="50" height="50" relative="1" as="geometry">
            <mxPoint x="20" y="10" as="sourcePoint" />
            <mxPoint x="70" y="-40" as="targetPoint" />
          </mxGeometry>
        </mxCell>
        <mxCell id="6BM6vpleSpneftJprQCP-42" value="" style="endArrow=none;html=1;rounded=0;fontSize=12;startSize=8;endSize=8;entryX=0;entryY=0.5;entryDx=0;entryDy=0;exitX=1;exitY=0.5;exitDx=0;exitDy=0;edgeStyle=orthogonalEdgeStyle;" edge="1" parent="1" source="6BM6vpleSpneftJprQCP-30" target="6BM6vpleSpneftJprQCP-39">
          <mxGeometry width="50" height="50" relative="1" as="geometry">
            <mxPoint x="20" y="10" as="sourcePoint" />
            <mxPoint x="70" y="-40" as="targetPoint" />
          </mxGeometry>
        </mxCell>
        <mxCell id="6BM6vpleSpneftJprQCP-43" value="" style="endArrow=none;html=1;rounded=0;fontSize=12;startSize=8;endSize=8;entryX=0.006;entryY=0.355;entryDx=0;entryDy=0;exitX=1;exitY=0.5;exitDx=0;exitDy=0;edgeStyle=orthogonalEdgeStyle;entryPerimeter=0;" edge="1" parent="1" source="6BM6vpleSpneftJprQCP-30" target="6BM6vpleSpneftJprQCP-40">
          <mxGeometry width="50" height="50" relative="1" as="geometry">
            <mxPoint x="20" y="10" as="sourcePoint" />
            <mxPoint x="70" y="-40" as="targetPoint" />
          </mxGeometry>
        </mxCell>
        <mxCell id="6BM6vpleSpneftJprQCP-48" value="id" style="ellipse;whiteSpace=wrap;html=1;strokeColor=#36393d;fillColor=#cce5ff;" vertex="1" parent="1">
          <mxGeometry x="280" y="320" width="80" height="40" as="geometry" />
        </mxCell>
        <mxCell id="6BM6vpleSpneftJprQCP-49" value="role_name" style="ellipse;whiteSpace=wrap;html=1;strokeColor=#36393d;fillColor=#cce5ff;" vertex="1" parent="1">
          <mxGeometry x="280" y="363" width="80" height="40" as="geometry" />
        </mxCell>
        <mxCell id="6BM6vpleSpneftJprQCP-50" value="note" style="ellipse;whiteSpace=wrap;html=1;strokeColor=#36393d;fillColor=#cce5ff;" vertex="1" parent="1">
          <mxGeometry x="280" y="407" width="80" height="40" as="geometry" />
        </mxCell>
        <mxCell id="6BM6vpleSpneftJprQCP-52" value="" style="endArrow=none;html=1;rounded=0;fontSize=12;startSize=8;endSize=8;entryX=0;entryY=0.5;entryDx=0;entryDy=0;exitX=1;exitY=0.5;exitDx=0;exitDy=0;edgeStyle=orthogonalEdgeStyle;fillColor=#cce5ff;strokeColor=#36393d;" edge="1" parent="1" source="6BM6vpleSpneftJprQCP-32" target="6BM6vpleSpneftJprQCP-48">
          <mxGeometry width="50" height="50" relative="1" as="geometry">
            <mxPoint x="200" y="310" as="sourcePoint" />
            <mxPoint x="250" y="260" as="targetPoint" />
          </mxGeometry>
        </mxCell>
        <mxCell id="6BM6vpleSpneftJprQCP-53" value="" style="endArrow=none;html=1;rounded=0;fontSize=12;startSize=8;endSize=8;entryX=0;entryY=0.425;entryDx=0;entryDy=0;exitX=1;exitY=0.5;exitDx=0;exitDy=0;edgeStyle=orthogonalEdgeStyle;entryPerimeter=0;fillColor=#cce5ff;strokeColor=#36393d;" edge="1" parent="1" source="6BM6vpleSpneftJprQCP-32" target="6BM6vpleSpneftJprQCP-49">
          <mxGeometry width="50" height="50" relative="1" as="geometry">
            <mxPoint x="200" y="310" as="sourcePoint" />
            <mxPoint x="250" y="260" as="targetPoint" />
          </mxGeometry>
        </mxCell>
        <mxCell id="6BM6vpleSpneftJprQCP-54" value="" style="endArrow=none;html=1;rounded=0;fontSize=12;startSize=8;endSize=8;entryX=0;entryY=0.5;entryDx=0;entryDy=0;exitX=1;exitY=0.5;exitDx=0;exitDy=0;edgeStyle=orthogonalEdgeStyle;fillColor=#cce5ff;strokeColor=#36393d;" edge="1" parent="1" source="6BM6vpleSpneftJprQCP-32" target="6BM6vpleSpneftJprQCP-50">
          <mxGeometry width="50" height="50" relative="1" as="geometry">
            <mxPoint x="200" y="310" as="sourcePoint" />
            <mxPoint x="250" y="260" as="targetPoint" />
          </mxGeometry>
        </mxCell>
        <mxCell id="6BM6vpleSpneftJprQCP-57" value="ROOMS" style="rounded=0;whiteSpace=wrap;html=1;strokeColor=#56517e;fillColor=#d0cee2;" vertex="1" parent="1">
          <mxGeometry x="-590" y="78" width="80" height="40" as="geometry" />
        </mxCell>
        <mxCell id="6BM6vpleSpneftJprQCP-58" value="id" style="ellipse;whiteSpace=wrap;html=1;strokeColor=#56517e;fillColor=#d0cee2;" vertex="1" parent="1">
          <mxGeometry x="-730" y="34" width="80" height="40" as="geometry" />
        </mxCell>
        <mxCell id="6BM6vpleSpneftJprQCP-59" value="room_name" style="ellipse;whiteSpace=wrap;html=1;strokeColor=#56517e;fillColor=#d0cee2;" vertex="1" parent="1">
          <mxGeometry x="-730" y="78" width="80" height="40" as="geometry" />
        </mxCell>
        <mxCell id="6BM6vpleSpneftJprQCP-60" value="note" style="ellipse;whiteSpace=wrap;html=1;strokeColor=#56517e;fillColor=#d0cee2;" vertex="1" parent="1">
          <mxGeometry x="-730" y="122" width="80" height="40" as="geometry" />
        </mxCell>
        <mxCell id="6BM6vpleSpneftJprQCP-69" value="" style="endArrow=none;html=1;rounded=0;fontSize=12;startSize=8;endSize=8;entryX=0;entryY=0.5;entryDx=0;entryDy=0;exitX=1;exitY=0.5;exitDx=0;exitDy=0;edgeStyle=orthogonalEdgeStyle;fillColor=#d0cee2;strokeColor=#56517e;" edge="1" parent="1" source="6BM6vpleSpneftJprQCP-58" target="6BM6vpleSpneftJprQCP-57">
          <mxGeometry width="50" height="50" relative="1" as="geometry">
            <mxPoint x="-590" y="174" as="sourcePoint" />
            <mxPoint x="-540" y="124" as="targetPoint" />
          </mxGeometry>
        </mxCell>
        <mxCell id="6BM6vpleSpneftJprQCP-70" value="" style="endArrow=none;html=1;rounded=0;fontSize=12;startSize=8;endSize=8;entryX=0;entryY=0.5;entryDx=0;entryDy=0;exitX=1;exitY=0.5;exitDx=0;exitDy=0;edgeStyle=orthogonalEdgeStyle;fillColor=#d0cee2;strokeColor=#56517e;" edge="1" parent="1" source="6BM6vpleSpneftJprQCP-59" target="6BM6vpleSpneftJprQCP-57">
          <mxGeometry width="50" height="50" relative="1" as="geometry">
            <mxPoint x="-590" y="174" as="sourcePoint" />
            <mxPoint x="-540" y="124" as="targetPoint" />
          </mxGeometry>
        </mxCell>
        <mxCell id="6BM6vpleSpneftJprQCP-71" value="" style="endArrow=none;html=1;rounded=0;fontSize=12;startSize=8;endSize=8;entryX=0;entryY=0.5;entryDx=0;entryDy=0;exitX=1;exitY=0.5;exitDx=0;exitDy=0;edgeStyle=orthogonalEdgeStyle;fillColor=#d0cee2;strokeColor=#56517e;" edge="1" parent="1" source="6BM6vpleSpneftJprQCP-60" target="6BM6vpleSpneftJprQCP-57">
          <mxGeometry width="50" height="50" relative="1" as="geometry">
            <mxPoint x="-590" y="174" as="sourcePoint" />
            <mxPoint x="-540" y="124" as="targetPoint" />
          </mxGeometry>
        </mxCell>
        <mxCell id="6BM6vpleSpneftJprQCP-72" value="SUBJECTS" style="rounded=0;whiteSpace=wrap;html=1;fillColor=#dae8fc;strokeColor=#6c8ebf;" vertex="1" parent="1">
          <mxGeometry x="-590" y="238" width="80" height="40" as="geometry" />
        </mxCell>
        <mxCell id="6BM6vpleSpneftJprQCP-73" value="id" style="ellipse;whiteSpace=wrap;html=1;fillColor=#dae8fc;strokeColor=#6c8ebf;" vertex="1" parent="1">
          <mxGeometry x="-730" y="194" width="80" height="40" as="geometry" />
        </mxCell>
        <mxCell id="6BM6vpleSpneftJprQCP-74" value="subject_name" style="ellipse;whiteSpace=wrap;html=1;fillColor=#dae8fc;strokeColor=#6c8ebf;" vertex="1" parent="1">
          <mxGeometry x="-730" y="238" width="80" height="40" as="geometry" />
        </mxCell>
        <mxCell id="6BM6vpleSpneftJprQCP-75" value="note" style="ellipse;whiteSpace=wrap;html=1;fillColor=#dae8fc;strokeColor=#6c8ebf;" vertex="1" parent="1">
          <mxGeometry x="-730" y="282" width="80" height="40" as="geometry" />
        </mxCell>
        <mxCell id="6BM6vpleSpneftJprQCP-76" value="" style="endArrow=none;html=1;rounded=0;fontSize=12;startSize=8;endSize=8;entryX=0;entryY=0.5;entryDx=0;entryDy=0;exitX=1;exitY=0.5;exitDx=0;exitDy=0;edgeStyle=orthogonalEdgeStyle;fillColor=#dae8fc;strokeColor=#6c8ebf;" edge="1" source="6BM6vpleSpneftJprQCP-73" target="6BM6vpleSpneftJprQCP-72" parent="1">
          <mxGeometry width="50" height="50" relative="1" as="geometry">
            <mxPoint x="-590" y="334" as="sourcePoint" />
            <mxPoint x="-540" y="284" as="targetPoint" />
          </mxGeometry>
        </mxCell>
        <mxCell id="6BM6vpleSpneftJprQCP-77" value="" style="endArrow=none;html=1;rounded=0;fontSize=12;startSize=8;endSize=8;entryX=0;entryY=0.5;entryDx=0;entryDy=0;exitX=1;exitY=0.5;exitDx=0;exitDy=0;edgeStyle=orthogonalEdgeStyle;fillColor=#dae8fc;strokeColor=#6c8ebf;" edge="1" source="6BM6vpleSpneftJprQCP-74" target="6BM6vpleSpneftJprQCP-72" parent="1">
          <mxGeometry width="50" height="50" relative="1" as="geometry">
            <mxPoint x="-590" y="334" as="sourcePoint" />
            <mxPoint x="-540" y="284" as="targetPoint" />
          </mxGeometry>
        </mxCell>
        <mxCell id="6BM6vpleSpneftJprQCP-78" value="" style="endArrow=none;html=1;rounded=0;fontSize=12;startSize=8;endSize=8;entryX=0;entryY=0.5;entryDx=0;entryDy=0;exitX=1;exitY=0.5;exitDx=0;exitDy=0;edgeStyle=orthogonalEdgeStyle;fillColor=#dae8fc;strokeColor=#6c8ebf;" edge="1" source="6BM6vpleSpneftJprQCP-75" target="6BM6vpleSpneftJprQCP-72" parent="1">
          <mxGeometry width="50" height="50" relative="1" as="geometry">
            <mxPoint x="-590" y="334" as="sourcePoint" />
            <mxPoint x="-540" y="284" as="targetPoint" />
          </mxGeometry>
        </mxCell>
        <mxCell id="6BM6vpleSpneftJprQCP-79" value="SESSIONS" style="rounded=0;whiteSpace=wrap;html=1;fillColor=#d5e8d4;strokeColor=#82b366;" vertex="1" parent="1">
          <mxGeometry x="-360" y="157" width="80" height="40" as="geometry" />
        </mxCell>
        <mxCell id="6BM6vpleSpneftJprQCP-80" value="id" style="ellipse;whiteSpace=wrap;html=1;strokeColor=#82b366;fillColor=#d5e8d4;" vertex="1" parent="1">
          <mxGeometry x="-240" y="50" width="80" height="40" as="geometry" />
        </mxCell>
        <mxCell id="6BM6vpleSpneftJprQCP-81" value="room_id" style="ellipse;whiteSpace=wrap;html=1;strokeColor=#56517e;fillColor=#d0cee2;" vertex="1" parent="1">
          <mxGeometry x="-240" y="136" width="80" height="40" as="geometry" />
        </mxCell>
        <mxCell id="6BM6vpleSpneftJprQCP-82" value="subject_id" style="ellipse;whiteSpace=wrap;html=1;fillColor=#dae8fc;strokeColor=#6c8ebf;" vertex="1" parent="1">
          <mxGeometry x="-240" y="180" width="80" height="40" as="geometry" />
        </mxCell>
        <mxCell id="6BM6vpleSpneftJprQCP-83" value="end_time" style="ellipse;whiteSpace=wrap;html=1;fillColor=#d5e8d4;strokeColor=#82b366;" vertex="1" parent="1">
          <mxGeometry x="-480" y="157" width="80" height="40" as="geometry" />
        </mxCell>
        <mxCell id="6BM6vpleSpneftJprQCP-84" value="date" style="ellipse;whiteSpace=wrap;html=1;fillColor=#d5e8d4;strokeColor=#82b366;" vertex="1" parent="1">
          <mxGeometry x="-480" y="201" width="80" height="40" as="geometry" />
        </mxCell>
        <mxCell id="6BM6vpleSpneftJprQCP-87" value="start_time" style="ellipse;whiteSpace=wrap;html=1;fillColor=#d5e8d4;strokeColor=#82b366;" vertex="1" parent="1">
          <mxGeometry x="-480" y="113" width="80" height="40" as="geometry" />
        </mxCell>
        <mxCell id="6BM6vpleSpneftJprQCP-88" value="" style="endArrow=none;html=1;rounded=0;fontSize=12;startSize=8;endSize=8;entryX=0;entryY=0.5;entryDx=0;entryDy=0;exitX=1;exitY=0.5;exitDx=0;exitDy=0;edgeStyle=orthogonalEdgeStyle;fillColor=#d5e8d4;strokeColor=#82b366;" edge="1" parent="1" source="6BM6vpleSpneftJprQCP-87" target="6BM6vpleSpneftJprQCP-79">
          <mxGeometry width="50" height="50" relative="1" as="geometry">
            <mxPoint x="-430" y="299" as="sourcePoint" />
            <mxPoint x="-380" y="249" as="targetPoint" />
          </mxGeometry>
        </mxCell>
        <mxCell id="6BM6vpleSpneftJprQCP-89" value="" style="endArrow=none;html=1;rounded=0;fontSize=12;startSize=8;endSize=8;entryX=0;entryY=0.5;entryDx=0;entryDy=0;exitX=1;exitY=0.5;exitDx=0;exitDy=0;edgeStyle=orthogonalEdgeStyle;fillColor=#d5e8d4;strokeColor=#82b366;" edge="1" parent="1" source="6BM6vpleSpneftJprQCP-83" target="6BM6vpleSpneftJprQCP-79">
          <mxGeometry width="50" height="50" relative="1" as="geometry">
            <mxPoint x="-430" y="299" as="sourcePoint" />
            <mxPoint x="-380" y="249" as="targetPoint" />
          </mxGeometry>
        </mxCell>
        <mxCell id="6BM6vpleSpneftJprQCP-90" value="" style="endArrow=none;html=1;rounded=0;fontSize=12;startSize=8;endSize=8;entryX=0;entryY=0.5;entryDx=0;entryDy=0;exitX=1;exitY=0.5;exitDx=0;exitDy=0;edgeStyle=orthogonalEdgeStyle;fillColor=#d5e8d4;strokeColor=#82b366;" edge="1" parent="1" source="6BM6vpleSpneftJprQCP-84" target="6BM6vpleSpneftJprQCP-79">
          <mxGeometry width="50" height="50" relative="1" as="geometry">
            <mxPoint x="-430" y="299" as="sourcePoint" />
            <mxPoint x="-380" y="249" as="targetPoint" />
          </mxGeometry>
        </mxCell>
        <mxCell id="6BM6vpleSpneftJprQCP-92" value="" style="endArrow=none;html=1;rounded=0;fontSize=12;startSize=8;endSize=8;entryX=0;entryY=0.5;entryDx=0;entryDy=0;exitX=1;exitY=0.5;exitDx=0;exitDy=0;edgeStyle=orthogonalEdgeStyle;" edge="1" parent="1" source="6BM6vpleSpneftJprQCP-79" target="6BM6vpleSpneftJprQCP-80">
          <mxGeometry width="50" height="50" relative="1" as="geometry">
            <mxPoint x="-430" y="299" as="sourcePoint" />
            <mxPoint x="-380" y="249" as="targetPoint" />
          </mxGeometry>
        </mxCell>
        <mxCell id="6BM6vpleSpneftJprQCP-93" value="" style="endArrow=none;html=1;rounded=0;fontSize=12;startSize=8;endSize=8;entryX=0;entryY=0.5;entryDx=0;entryDy=0;exitX=1;exitY=0.5;exitDx=0;exitDy=0;edgeStyle=orthogonalEdgeStyle;" edge="1" parent="1" source="6BM6vpleSpneftJprQCP-79" target="6BM6vpleSpneftJprQCP-81">
          <mxGeometry width="50" height="50" relative="1" as="geometry">
            <mxPoint x="-430" y="299" as="sourcePoint" />
            <mxPoint x="-380" y="249" as="targetPoint" />
          </mxGeometry>
        </mxCell>
        <mxCell id="6BM6vpleSpneftJprQCP-94" value="" style="endArrow=none;html=1;rounded=0;fontSize=12;startSize=8;endSize=8;entryX=0;entryY=0.5;entryDx=0;entryDy=0;exitX=1;exitY=0.5;exitDx=0;exitDy=0;edgeStyle=orthogonalEdgeStyle;" edge="1" parent="1" source="6BM6vpleSpneftJprQCP-79" target="6BM6vpleSpneftJprQCP-82">
          <mxGeometry width="50" height="50" relative="1" as="geometry">
            <mxPoint x="-430" y="299" as="sourcePoint" />
            <mxPoint x="-380" y="249" as="targetPoint" />
          </mxGeometry>
        </mxCell>
        <mxCell id="6BM6vpleSpneftJprQCP-95" value="group_id" style="ellipse;whiteSpace=wrap;html=1;strokeColor=#36393d;fillColor=#f9f7ed;" vertex="1" parent="1">
          <mxGeometry x="-240" y="224" width="80" height="40" as="geometry" />
        </mxCell>
        <mxCell id="6BM6vpleSpneftJprQCP-96" value="" style="endArrow=none;html=1;rounded=0;fontSize=12;startSize=8;endSize=8;entryX=0;entryY=0.5;entryDx=0;entryDy=0;exitX=1;exitY=0.5;exitDx=0;exitDy=0;edgeStyle=orthogonalEdgeStyle;" edge="1" parent="1" source="6BM6vpleSpneftJprQCP-79" target="6BM6vpleSpneftJprQCP-95">
          <mxGeometry width="50" height="50" relative="1" as="geometry">
            <mxPoint x="-430" y="299" as="sourcePoint" />
            <mxPoint x="-380" y="249" as="targetPoint" />
          </mxGeometry>
        </mxCell>
        <mxCell id="6BM6vpleSpneftJprQCP-97" value="" style="endArrow=none;html=1;rounded=0;fontSize=12;startSize=8;endSize=8;entryX=0.5;entryY=0;entryDx=0;entryDy=0;exitX=1;exitY=0.5;exitDx=0;exitDy=0;edgeStyle=orthogonalEdgeStyle;" edge="1" parent="1" source="6BM6vpleSpneftJprQCP-57" target="6BM6vpleSpneftJprQCP-79">
          <mxGeometry width="50" height="50" relative="1" as="geometry">
            <mxPoint x="-560" y="197" as="sourcePoint" />
            <mxPoint x="-510" y="147" as="targetPoint" />
          </mxGeometry>
        </mxCell>
        <mxCell id="6BM6vpleSpneftJprQCP-98" value="" style="endArrow=none;html=1;rounded=0;fontSize=12;startSize=8;endSize=8;entryX=0.5;entryY=1;entryDx=0;entryDy=0;exitX=1;exitY=0.5;exitDx=0;exitDy=0;edgeStyle=orthogonalEdgeStyle;" edge="1" parent="1" source="6BM6vpleSpneftJprQCP-72" target="6BM6vpleSpneftJprQCP-79">
          <mxGeometry width="50" height="50" relative="1" as="geometry">
            <mxPoint x="-560" y="197" as="sourcePoint" />
            <mxPoint x="-510" y="147" as="targetPoint" />
          </mxGeometry>
        </mxCell>
        <mxCell id="6BM6vpleSpneftJprQCP-99" value="QR_CODES" style="rounded=0;whiteSpace=wrap;html=1;fillColor=#f8cecc;strokeColor=#b85450;" vertex="1" parent="1">
          <mxGeometry x="-160" y="-80" width="80" height="40" as="geometry" />
        </mxCell>
        <mxCell id="6BM6vpleSpneftJprQCP-103" value="picture" style="ellipse;whiteSpace=wrap;html=1;strokeColor=#b85450;fillColor=#f8cecc;" vertex="1" parent="1">
          <mxGeometry x="-60" y="-170" width="80" height="40" as="geometry" />
        </mxCell>
        <mxCell id="6BM6vpleSpneftJprQCP-104" value="duration" style="ellipse;whiteSpace=wrap;html=1;strokeColor=#b85450;fillColor=#f8cecc;" vertex="1" parent="1">
          <mxGeometry x="-60" y="-126" width="80" height="40" as="geometry" />
        </mxCell>
        <mxCell id="6BM6vpleSpneftJprQCP-105" value="id" style="ellipse;whiteSpace=wrap;html=1;strokeColor=#b85450;fillColor=#f8cecc;" vertex="1" parent="1">
          <mxGeometry x="-260" y="-170" width="80" height="40" as="geometry" />
        </mxCell>
        <mxCell id="6BM6vpleSpneftJprQCP-106" value="generated_by" style="ellipse;whiteSpace=wrap;html=1;strokeColor=#36393d;fillColor=#cdeb8b;" vertex="1" parent="1">
          <mxGeometry x="-260" y="-126" width="80" height="40" as="geometry" />
        </mxCell>
        <mxCell id="6BM6vpleSpneftJprQCP-107" value="" style="endArrow=none;html=1;rounded=0;fontSize=12;startSize=8;endSize=8;entryX=0;entryY=0.5;entryDx=0;entryDy=0;exitX=1;exitY=0.5;exitDx=0;exitDy=0;edgeStyle=orthogonalEdgeStyle;" edge="1" parent="1" source="6BM6vpleSpneftJprQCP-106" target="6BM6vpleSpneftJprQCP-99">
          <mxGeometry width="50" height="50" relative="1" as="geometry">
            <mxPoint x="-300" y="130" as="sourcePoint" />
            <mxPoint x="-250" y="80" as="targetPoint" />
          </mxGeometry>
        </mxCell>
        <mxCell id="6BM6vpleSpneftJprQCP-108" value="" style="endArrow=none;html=1;rounded=0;fontSize=12;startSize=8;endSize=8;exitX=0;exitY=0.5;exitDx=0;exitDy=0;entryX=1;entryY=0.5;entryDx=0;entryDy=0;edgeStyle=orthogonalEdgeStyle;" edge="1" parent="1" source="6BM6vpleSpneftJprQCP-104" target="6BM6vpleSpneftJprQCP-99">
          <mxGeometry width="50" height="50" relative="1" as="geometry">
            <mxPoint x="-100" y="-106" as="sourcePoint" />
            <mxPoint x="-60" y="-60" as="targetPoint" />
          </mxGeometry>
        </mxCell>
        <mxCell id="6BM6vpleSpneftJprQCP-109" value="" style="endArrow=none;html=1;rounded=0;fontSize=12;startSize=8;endSize=8;exitX=0;exitY=0.5;exitDx=0;exitDy=0;entryX=1;entryY=0.5;entryDx=0;entryDy=0;edgeStyle=orthogonalEdgeStyle;" edge="1" parent="1" source="6BM6vpleSpneftJprQCP-103" target="6BM6vpleSpneftJprQCP-99">
          <mxGeometry width="50" height="50" relative="1" as="geometry">
            <mxPoint x="-100" y="-106" as="sourcePoint" />
            <mxPoint x="-60" y="-60" as="targetPoint" />
          </mxGeometry>
        </mxCell>
        <mxCell id="6BM6vpleSpneftJprQCP-110" value="" style="endArrow=none;html=1;rounded=0;fontSize=12;startSize=8;endSize=8;entryX=0;entryY=0.5;entryDx=0;entryDy=0;exitX=1;exitY=0.5;exitDx=0;exitDy=0;edgeStyle=orthogonalEdgeStyle;" edge="1" parent="1" source="6BM6vpleSpneftJprQCP-105" target="6BM6vpleSpneftJprQCP-99">
          <mxGeometry width="50" height="50" relative="1" as="geometry">
            <mxPoint x="-300" y="130" as="sourcePoint" />
            <mxPoint x="-250" y="80" as="targetPoint" />
          </mxGeometry>
        </mxCell>
        <mxCell id="6BM6vpleSpneftJprQCP-112" value="" style="endArrow=none;html=1;rounded=0;fontSize=12;startSize=8;endSize=8;entryX=1;entryY=0.5;entryDx=0;entryDy=0;exitX=0.375;exitY=0.05;exitDx=0;exitDy=0;exitPerimeter=0;edgeStyle=orthogonalEdgeStyle;" edge="1" parent="1" source="6BM6vpleSpneftJprQCP-1" target="6BM6vpleSpneftJprQCP-99">
          <mxGeometry width="50" height="50" relative="1" as="geometry">
            <mxPoint x="-270" y="110" as="sourcePoint" />
            <mxPoint x="-220" y="60" as="targetPoint" />
            <Array as="points">
              <mxPoint x="70" y="-60" />
            </Array>
          </mxGeometry>
        </mxCell>
        <mxCell id="6BM6vpleSpneftJprQCP-113" value="" style="endArrow=none;html=1;rounded=0;fontSize=12;startSize=8;endSize=8;entryX=0;entryY=0.5;entryDx=0;entryDy=0;exitX=0.66;exitY=0.067;exitDx=0;exitDy=0;exitPerimeter=0;edgeStyle=orthogonalEdgeStyle;" edge="1" parent="1" source="6BM6vpleSpneftJprQCP-79" target="6BM6vpleSpneftJprQCP-99">
          <mxGeometry width="50" height="50" relative="1" as="geometry">
            <mxPoint x="-270" y="108" as="sourcePoint" />
            <mxPoint x="-420" y="-94" as="targetPoint" />
            <Array as="points">
              <mxPoint x="-307" y="-60" />
            </Array>
          </mxGeometry>
        </mxCell>
        <mxCell id="6BM6vpleSpneftJprQCP-114" value="qr_code_id" style="ellipse;whiteSpace=wrap;html=1;strokeColor=#b85450;fillColor=#f8cecc;" vertex="1" parent="1">
          <mxGeometry x="-240" y="93" width="80" height="40" as="geometry" />
        </mxCell>
        <mxCell id="6BM6vpleSpneftJprQCP-115" value="" style="endArrow=none;html=1;rounded=0;fontSize=12;startSize=8;endSize=8;entryX=0;entryY=0.5;entryDx=0;entryDy=0;exitX=1;exitY=0.5;exitDx=0;exitDy=0;edgeStyle=orthogonalEdgeStyle;" edge="1" parent="1" source="6BM6vpleSpneftJprQCP-79" target="6BM6vpleSpneftJprQCP-114">
          <mxGeometry width="50" height="50" relative="1" as="geometry">
            <mxPoint x="-430" y="299" as="sourcePoint" />
            <mxPoint x="-380" y="249" as="targetPoint" />
          </mxGeometry>
        </mxCell>
        <mxCell id="6BM6vpleSpneftJprQCP-116" value="ATTENDANTS" style="rounded=0;whiteSpace=wrap;html=1;strokeColor=#0e8088;fillColor=#b0e3e6;" vertex="1" parent="1">
          <mxGeometry x="-240" y="450" width="120" height="60" as="geometry" />
        </mxCell>
        <mxCell id="6BM6vpleSpneftJprQCP-117" value="id" style="ellipse;whiteSpace=wrap;html=1;fillColor=#b0e3e6;strokeColor=#0e8088;" vertex="1" parent="1">
          <mxGeometry x="-60" y="400" width="80" height="40" as="geometry" />
        </mxCell>
        <mxCell id="6BM6vpleSpneftJprQCP-118" value="student_id" style="ellipse;whiteSpace=wrap;html=1;fillColor=#cdeb8b;strokeColor=#36393d;" vertex="1" parent="1">
          <mxGeometry x="-60" y="444" width="80" height="40" as="geometry" />
        </mxCell>
        <mxCell id="6BM6vpleSpneftJprQCP-119" value="date" style="ellipse;whiteSpace=wrap;html=1;fillColor=#b0e3e6;strokeColor=#0e8088;" vertex="1" parent="1">
          <mxGeometry x="-60" y="488" width="80" height="40" as="geometry" />
        </mxCell>
        <mxCell id="6BM6vpleSpneftJprQCP-120" value="check_in_time" style="ellipse;whiteSpace=wrap;html=1;fillColor=#b0e3e6;strokeColor=#0e8088;" vertex="1" parent="1">
          <mxGeometry x="-60" y="532" width="80" height="40" as="geometry" />
        </mxCell>
        <mxCell id="6BM6vpleSpneftJprQCP-121" value="session_id" style="ellipse;whiteSpace=wrap;html=1;fillColor=#d5e8d4;strokeColor=#82b366;" vertex="1" parent="1">
          <mxGeometry x="-380" y="400" width="80" height="40" as="geometry" />
        </mxCell>
        <mxCell id="6BM6vpleSpneftJprQCP-122" value="edited_at" style="ellipse;whiteSpace=wrap;html=1;fillColor=#b0e3e6;strokeColor=#0e8088;" vertex="1" parent="1">
          <mxGeometry x="-380" y="444" width="80" height="40" as="geometry" />
        </mxCell>
        <mxCell id="6BM6vpleSpneftJprQCP-123" value="edited_by" style="ellipse;whiteSpace=wrap;html=1;fillColor=#b0e3e6;strokeColor=#0e8088;" vertex="1" parent="1">
          <mxGeometry x="-380" y="488" width="80" height="40" as="geometry" />
        </mxCell>
        <mxCell id="6BM6vpleSpneftJprQCP-124" value="status" style="ellipse;whiteSpace=wrap;html=1;fillColor=#b0e3e6;strokeColor=#0e8088;" vertex="1" parent="1">
          <mxGeometry x="-380" y="532" width="80" height="40" as="geometry" />
        </mxCell>
        <mxCell id="6BM6vpleSpneftJprQCP-125" value="" style="endArrow=none;html=1;rounded=0;fontSize=12;startSize=8;endSize=8;exitX=0.25;exitY=0;exitDx=0;exitDy=0;edgeStyle=orthogonalEdgeStyle;entryX=0.629;entryY=0.967;entryDx=0;entryDy=0;entryPerimeter=0;" edge="1" parent="1" source="6BM6vpleSpneftJprQCP-116" target="6BM6vpleSpneftJprQCP-79">
          <mxGeometry width="50" height="50" relative="1" as="geometry">
            <mxPoint x="-410" y="370" as="sourcePoint" />
            <mxPoint x="-309" y="220" as="targetPoint" />
            <Array as="points">
              <mxPoint x="-210" y="380" />
              <mxPoint x="-310" y="380" />
            </Array>
          </mxGeometry>
        </mxCell>
        <mxCell id="6BM6vpleSpneftJprQCP-126" value="" style="endArrow=none;html=1;rounded=0;fontSize=12;startSize=8;endSize=8;entryX=0.25;entryY=1;entryDx=0;entryDy=0;exitX=0.75;exitY=0;exitDx=0;exitDy=0;edgeStyle=orthogonalEdgeStyle;" edge="1" parent="1" source="6BM6vpleSpneftJprQCP-116" target="6BM6vpleSpneftJprQCP-1">
          <mxGeometry width="50" height="50" relative="1" as="geometry">
            <mxPoint x="-410" y="370" as="sourcePoint" />
            <mxPoint x="-360" y="320" as="targetPoint" />
            <Array as="points">
              <mxPoint x="-150" y="380" />
              <mxPoint x="60" y="380" />
            </Array>
          </mxGeometry>
        </mxCell>
        <mxCell id="6BM6vpleSpneftJprQCP-127" value="" style="endArrow=none;html=1;rounded=0;fontSize=12;startSize=8;endSize=8;exitX=1;exitY=0.5;exitDx=0;exitDy=0;entryX=0;entryY=0.5;entryDx=0;entryDy=0;edgeStyle=orthogonalEdgeStyle;fillColor=#b0e3e6;strokeColor=#0e8088;" edge="1" parent="1" source="6BM6vpleSpneftJprQCP-116" target="6BM6vpleSpneftJprQCP-117">
          <mxGeometry width="50" height="50" relative="1" as="geometry">
            <mxPoint x="-100" y="390" as="sourcePoint" />
            <mxPoint x="-50" y="340" as="targetPoint" />
          </mxGeometry>
        </mxCell>
        <mxCell id="6BM6vpleSpneftJprQCP-128" value="" style="endArrow=none;html=1;rounded=0;fontSize=12;startSize=8;endSize=8;exitX=1;exitY=0.5;exitDx=0;exitDy=0;entryX=0;entryY=0.5;entryDx=0;entryDy=0;edgeStyle=orthogonalEdgeStyle;fillColor=#b0e3e6;strokeColor=#0e8088;" edge="1" parent="1" source="6BM6vpleSpneftJprQCP-116" target="6BM6vpleSpneftJprQCP-118">
          <mxGeometry width="50" height="50" relative="1" as="geometry">
            <mxPoint x="-100" y="390" as="sourcePoint" />
            <mxPoint x="-50" y="340" as="targetPoint" />
          </mxGeometry>
        </mxCell>
        <mxCell id="6BM6vpleSpneftJprQCP-129" value="" style="endArrow=none;html=1;rounded=0;fontSize=12;startSize=8;endSize=8;exitX=1;exitY=0.5;exitDx=0;exitDy=0;entryX=0;entryY=0.5;entryDx=0;entryDy=0;edgeStyle=orthogonalEdgeStyle;fillColor=#b0e3e6;strokeColor=#0e8088;" edge="1" parent="1" source="6BM6vpleSpneftJprQCP-116" target="6BM6vpleSpneftJprQCP-119">
          <mxGeometry width="50" height="50" relative="1" as="geometry">
            <mxPoint x="-100" y="390" as="sourcePoint" />
            <mxPoint x="-50" y="340" as="targetPoint" />
          </mxGeometry>
        </mxCell>
        <mxCell id="6BM6vpleSpneftJprQCP-130" value="" style="endArrow=none;html=1;rounded=0;fontSize=12;startSize=8;endSize=8;exitX=1;exitY=0.5;exitDx=0;exitDy=0;entryX=0;entryY=0.5;entryDx=0;entryDy=0;edgeStyle=orthogonalEdgeStyle;fillColor=#b0e3e6;strokeColor=#0e8088;" edge="1" parent="1" source="6BM6vpleSpneftJprQCP-116" target="6BM6vpleSpneftJprQCP-120">
          <mxGeometry width="50" height="50" relative="1" as="geometry">
            <mxPoint x="-100" y="390" as="sourcePoint" />
            <mxPoint x="-50" y="340" as="targetPoint" />
          </mxGeometry>
        </mxCell>
        <mxCell id="6BM6vpleSpneftJprQCP-131" value="" style="endArrow=none;html=1;rounded=0;fontSize=12;startSize=8;endSize=8;entryX=0;entryY=0.5;entryDx=0;entryDy=0;exitX=1;exitY=0.5;exitDx=0;exitDy=0;edgeStyle=orthogonalEdgeStyle;" edge="1" parent="1" source="6BM6vpleSpneftJprQCP-121" target="6BM6vpleSpneftJprQCP-116">
          <mxGeometry width="50" height="50" relative="1" as="geometry">
            <mxPoint x="-410" y="460" as="sourcePoint" />
            <mxPoint x="-360" y="410" as="targetPoint" />
          </mxGeometry>
        </mxCell>
        <mxCell id="6BM6vpleSpneftJprQCP-132" value="" style="endArrow=none;html=1;rounded=0;fontSize=12;startSize=8;endSize=8;entryX=0;entryY=0.5;entryDx=0;entryDy=0;exitX=1;exitY=0.5;exitDx=0;exitDy=0;edgeStyle=orthogonalEdgeStyle;" edge="1" parent="1" source="6BM6vpleSpneftJprQCP-122" target="6BM6vpleSpneftJprQCP-116">
          <mxGeometry width="50" height="50" relative="1" as="geometry">
            <mxPoint x="-410" y="460" as="sourcePoint" />
            <mxPoint x="-360" y="410" as="targetPoint" />
          </mxGeometry>
        </mxCell>
        <mxCell id="6BM6vpleSpneftJprQCP-133" value="" style="endArrow=none;html=1;rounded=0;fontSize=12;startSize=8;endSize=8;entryX=0;entryY=0.5;entryDx=0;entryDy=0;exitX=1;exitY=0.5;exitDx=0;exitDy=0;edgeStyle=orthogonalEdgeStyle;" edge="1" parent="1" source="6BM6vpleSpneftJprQCP-123" target="6BM6vpleSpneftJprQCP-116">
          <mxGeometry width="50" height="50" relative="1" as="geometry">
            <mxPoint x="-410" y="460" as="sourcePoint" />
            <mxPoint x="-360" y="410" as="targetPoint" />
          </mxGeometry>
        </mxCell>
        <mxCell id="6BM6vpleSpneftJprQCP-134" value="" style="endArrow=none;html=1;rounded=0;fontSize=12;startSize=8;endSize=8;entryX=0;entryY=0.5;entryDx=0;entryDy=0;exitX=1;exitY=0.5;exitDx=0;exitDy=0;edgeStyle=orthogonalEdgeStyle;" edge="1" parent="1" source="6BM6vpleSpneftJprQCP-124" target="6BM6vpleSpneftJprQCP-116">
          <mxGeometry width="50" height="50" relative="1" as="geometry">
            <mxPoint x="-410" y="460" as="sourcePoint" />
            <mxPoint x="-360" y="410" as="targetPoint" />
          </mxGeometry>
        </mxCell>
        <mxCell id="6BM6vpleSpneftJprQCP-145" value="" style="endArrow=none;html=1;rounded=0;fontSize=12;startSize=8;endSize=8;curved=1;exitX=0.5;exitY=0;exitDx=0;exitDy=0;entryX=0.5;entryY=1;entryDx=0;entryDy=0;" edge="1" parent="1" source="6BM6vpleSpneftJprQCP-1" target="6BM6vpleSpneftJprQCP-146">
          <mxGeometry width="50" height="50" relative="1" as="geometry">
            <mxPoint x="-250" y="160" as="sourcePoint" />
            <mxPoint x="80" y="-400" as="targetPoint" />
          </mxGeometry>
        </mxCell>
        <mxCell id="6BM6vpleSpneftJprQCP-146" value="ADDRESSES" style="rounded=0;whiteSpace=wrap;html=1;strokeColor=#36393d;fillColor=#ffff88;" vertex="1" parent="1">
          <mxGeometry x="40" y="-275" width="80" height="40" as="geometry" />
        </mxCell>
        <mxCell id="6BM6vpleSpneftJprQCP-147" value="" style="endArrow=none;html=1;rounded=0;fontSize=12;startSize=8;endSize=8;exitX=1.013;exitY=0.363;exitDx=0;exitDy=0;edgeStyle=orthogonalEdgeStyle;entryX=0;entryY=0.5;entryDx=0;entryDy=0;exitPerimeter=0;strokeColor=#36393d;fillColor=#ffff88;" edge="1" source="6BM6vpleSpneftJprQCP-146" target="6BM6vpleSpneftJprQCP-148" parent="1">
          <mxGeometry width="50" height="50" relative="1" as="geometry">
            <mxPoint x="210" y="-295" as="sourcePoint" />
            <mxPoint x="230" y="-325" as="targetPoint" />
          </mxGeometry>
        </mxCell>
        <mxCell id="6BM6vpleSpneftJprQCP-148" value="id" style="ellipse;whiteSpace=wrap;html=1;strokeColor=#36393d;fillColor=#ffff88;" vertex="1" parent="1">
          <mxGeometry x="180" y="-370" width="80" height="40" as="geometry" />
        </mxCell>
        <mxCell id="6BM6vpleSpneftJprQCP-149" value="province_id" style="ellipse;whiteSpace=wrap;html=1;strokeColor=#36393d;fillColor=#ffff88;" vertex="1" parent="1">
          <mxGeometry x="180" y="-326" width="80" height="40" as="geometry" />
        </mxCell>
        <mxCell id="6BM6vpleSpneftJprQCP-150" value="district_id" style="ellipse;whiteSpace=wrap;html=1;strokeColor=#36393d;fillColor=#ffff88;" vertex="1" parent="1">
          <mxGeometry x="180" y="-280" width="80" height="40" as="geometry" />
        </mxCell>
        <mxCell id="6BM6vpleSpneftJprQCP-151" value="village_name" style="ellipse;whiteSpace=wrap;html=1;strokeColor=#36393d;fillColor=#ffff88;" vertex="1" parent="1">
          <mxGeometry x="180" y="-189" width="80" height="40" as="geometry" />
        </mxCell>
        <mxCell id="6BM6vpleSpneftJprQCP-154" value="street_number" style="ellipse;whiteSpace=wrap;html=1;strokeColor=#36393d;fillColor=#ffff88;" vertex="1" parent="1">
          <mxGeometry x="-100" y="-297" width="80" height="40" as="geometry" />
        </mxCell>
        <mxCell id="6BM6vpleSpneftJprQCP-155" value="commune_id" style="ellipse;whiteSpace=wrap;html=1;strokeColor=#36393d;fillColor=#ffff88;" vertex="1" parent="1">
          <mxGeometry x="180" y="-234" width="80" height="40" as="geometry" />
        </mxCell>
        <mxCell id="6BM6vpleSpneftJprQCP-156" value="home_number" style="ellipse;whiteSpace=wrap;html=1;strokeColor=#36393d;fillColor=#ffff88;" vertex="1" parent="1">
          <mxGeometry x="-100" y="-252" width="80" height="40" as="geometry" />
        </mxCell>
        <mxCell id="6BM6vpleSpneftJprQCP-161" value="" style="endArrow=none;html=1;rounded=0;fontSize=12;startSize=8;endSize=8;exitX=1.013;exitY=0.363;exitDx=0;exitDy=0;edgeStyle=orthogonalEdgeStyle;entryX=0;entryY=0.5;entryDx=0;entryDy=0;exitPerimeter=0;strokeColor=#36393d;fillColor=#ffff88;" edge="1" source="6BM6vpleSpneftJprQCP-146" target="6BM6vpleSpneftJprQCP-149" parent="1">
          <mxGeometry width="50" height="50" relative="1" as="geometry">
            <mxPoint x="210" y="-295" as="sourcePoint" />
            <mxPoint x="230" y="-325" as="targetPoint" />
          </mxGeometry>
        </mxCell>
        <mxCell id="6BM6vpleSpneftJprQCP-162" value="" style="endArrow=none;html=1;rounded=0;fontSize=12;startSize=8;endSize=8;exitX=1.013;exitY=0.363;exitDx=0;exitDy=0;edgeStyle=orthogonalEdgeStyle;entryX=0;entryY=0.5;entryDx=0;entryDy=0;exitPerimeter=0;strokeColor=#36393d;fillColor=#ffff88;" edge="1" source="6BM6vpleSpneftJprQCP-146" target="6BM6vpleSpneftJprQCP-150" parent="1">
          <mxGeometry width="50" height="50" relative="1" as="geometry">
            <mxPoint x="210" y="-295" as="sourcePoint" />
            <mxPoint x="230" y="-325" as="targetPoint" />
          </mxGeometry>
        </mxCell>
        <mxCell id="6BM6vpleSpneftJprQCP-163" value="" style="endArrow=none;html=1;rounded=0;fontSize=12;startSize=8;endSize=8;exitX=1.013;exitY=0.363;exitDx=0;exitDy=0;edgeStyle=orthogonalEdgeStyle;entryX=0;entryY=0.5;entryDx=0;entryDy=0;exitPerimeter=0;strokeColor=#36393d;fillColor=#ffff88;" edge="1" source="6BM6vpleSpneftJprQCP-146" target="6BM6vpleSpneftJprQCP-155" parent="1">
          <mxGeometry width="50" height="50" relative="1" as="geometry">
            <mxPoint x="210" y="-295" as="sourcePoint" />
            <mxPoint x="230" y="-325" as="targetPoint" />
          </mxGeometry>
        </mxCell>
        <mxCell id="6BM6vpleSpneftJprQCP-164" value="" style="endArrow=none;html=1;rounded=0;fontSize=12;startSize=8;endSize=8;exitX=1.013;exitY=0.363;exitDx=0;exitDy=0;edgeStyle=orthogonalEdgeStyle;entryX=0;entryY=0.5;entryDx=0;entryDy=0;exitPerimeter=0;strokeColor=#36393d;fillColor=#ffff88;" edge="1" source="6BM6vpleSpneftJprQCP-146" target="6BM6vpleSpneftJprQCP-151" parent="1">
          <mxGeometry width="50" height="50" relative="1" as="geometry">
            <mxPoint x="210" y="-295" as="sourcePoint" />
            <mxPoint x="230" y="-325" as="targetPoint" />
          </mxGeometry>
        </mxCell>
        <mxCell id="6BM6vpleSpneftJprQCP-167" value="" style="endArrow=none;html=1;rounded=0;fontSize=12;startSize=8;endSize=8;exitX=0;exitY=0.5;exitDx=0;exitDy=0;edgeStyle=orthogonalEdgeStyle;entryX=1;entryY=0.5;entryDx=0;entryDy=0;strokeColor=#36393d;fillColor=#ffff88;" edge="1" source="6BM6vpleSpneftJprQCP-146" target="6BM6vpleSpneftJprQCP-154" parent="1">
          <mxGeometry width="50" height="50" relative="1" as="geometry">
            <mxPoint x="91.03999999999996" y="-242.74" as="sourcePoint" />
            <mxPoint x="-50" y="-347.26" as="targetPoint" />
          </mxGeometry>
        </mxCell>
        <mxCell id="6BM6vpleSpneftJprQCP-168" value="" style="endArrow=none;html=1;rounded=0;fontSize=12;startSize=8;endSize=8;exitX=0;exitY=0.5;exitDx=0;exitDy=0;edgeStyle=orthogonalEdgeStyle;entryX=1;entryY=0.5;entryDx=0;entryDy=0;strokeColor=#36393d;fillColor=#ffff88;" edge="1" source="6BM6vpleSpneftJprQCP-146" target="6BM6vpleSpneftJprQCP-156" parent="1">
          <mxGeometry width="50" height="50" relative="1" as="geometry">
            <mxPoint x="91.03999999999996" y="-242.74" as="sourcePoint" />
            <mxPoint x="-50" y="-347.26" as="targetPoint" />
          </mxGeometry>
        </mxCell>
        <mxCell id="6BM6vpleSpneftJprQCP-175" value="COMMUNES" style="rounded=0;whiteSpace=wrap;html=1;strokeColor=#36393d;fillColor=#cce5ff;" vertex="1" parent="1">
          <mxGeometry x="180" y="-570" width="80" height="40" as="geometry" />
        </mxCell>
        <mxCell id="6BM6vpleSpneftJprQCP-176" value="id" style="ellipse;whiteSpace=wrap;html=1;strokeColor=#36393d;fillColor=#cce5ff;" vertex="1" parent="1">
          <mxGeometry x="310" y="-610" width="80" height="40" as="geometry" />
        </mxCell>
        <mxCell id="6BM6vpleSpneftJprQCP-178" value="note" style="ellipse;whiteSpace=wrap;html=1;strokeColor=#36393d;fillColor=#cce5ff;" vertex="1" parent="1">
          <mxGeometry x="310" y="-523" width="80" height="40" as="geometry" />
        </mxCell>
        <mxCell id="6BM6vpleSpneftJprQCP-179" value="" style="endArrow=none;html=1;rounded=0;fontSize=12;startSize=8;endSize=8;entryX=0;entryY=0.5;entryDx=0;entryDy=0;exitX=1;exitY=0.5;exitDx=0;exitDy=0;edgeStyle=orthogonalEdgeStyle;fillColor=#cce5ff;strokeColor=#36393d;" edge="1" source="6BM6vpleSpneftJprQCP-175" target="6BM6vpleSpneftJprQCP-176" parent="1">
          <mxGeometry width="50" height="50" relative="1" as="geometry">
            <mxPoint x="230" y="-620" as="sourcePoint" />
            <mxPoint x="280" y="-670" as="targetPoint" />
          </mxGeometry>
        </mxCell>
        <mxCell id="6BM6vpleSpneftJprQCP-181" value="" style="endArrow=none;html=1;rounded=0;fontSize=12;startSize=8;endSize=8;entryX=0;entryY=0.5;entryDx=0;entryDy=0;exitX=1;exitY=0.5;exitDx=0;exitDy=0;edgeStyle=orthogonalEdgeStyle;fillColor=#cce5ff;strokeColor=#36393d;" edge="1" source="6BM6vpleSpneftJprQCP-175" target="6BM6vpleSpneftJprQCP-178" parent="1">
          <mxGeometry width="50" height="50" relative="1" as="geometry">
            <mxPoint x="230" y="-620" as="sourcePoint" />
            <mxPoint x="280" y="-670" as="targetPoint" />
          </mxGeometry>
        </mxCell>
        <mxCell id="6BM6vpleSpneftJprQCP-182" value="PROVINCES" style="rounded=0;whiteSpace=wrap;html=1;strokeColor=#36393d;fillColor=#cce5ff;" vertex="1" parent="1">
          <mxGeometry x="180" y="-430" width="80" height="40" as="geometry" />
        </mxCell>
        <mxCell id="6BM6vpleSpneftJprQCP-183" value="id" style="ellipse;whiteSpace=wrap;html=1;strokeColor=#36393d;fillColor=#cce5ff;" vertex="1" parent="1">
          <mxGeometry x="310" y="-470" width="80" height="40" as="geometry" />
        </mxCell>
        <mxCell id="6BM6vpleSpneftJprQCP-185" value="note" style="ellipse;whiteSpace=wrap;html=1;strokeColor=#36393d;fillColor=#cce5ff;" vertex="1" parent="1">
          <mxGeometry x="310" y="-383" width="80" height="40" as="geometry" />
        </mxCell>
        <mxCell id="6BM6vpleSpneftJprQCP-186" value="" style="endArrow=none;html=1;rounded=0;fontSize=12;startSize=8;endSize=8;entryX=0;entryY=0.5;entryDx=0;entryDy=0;exitX=1;exitY=0.5;exitDx=0;exitDy=0;edgeStyle=orthogonalEdgeStyle;fillColor=#cce5ff;strokeColor=#36393d;" edge="1" source="6BM6vpleSpneftJprQCP-182" target="6BM6vpleSpneftJprQCP-183" parent="1">
          <mxGeometry width="50" height="50" relative="1" as="geometry">
            <mxPoint x="230" y="-480" as="sourcePoint" />
            <mxPoint x="280" y="-530" as="targetPoint" />
          </mxGeometry>
        </mxCell>
        <mxCell id="6BM6vpleSpneftJprQCP-188" value="" style="endArrow=none;html=1;rounded=0;fontSize=12;startSize=8;endSize=8;entryX=0;entryY=0.5;entryDx=0;entryDy=0;exitX=1;exitY=0.5;exitDx=0;exitDy=0;edgeStyle=orthogonalEdgeStyle;fillColor=#cce5ff;strokeColor=#36393d;" edge="1" source="6BM6vpleSpneftJprQCP-182" target="6BM6vpleSpneftJprQCP-185" parent="1">
          <mxGeometry width="50" height="50" relative="1" as="geometry">
            <mxPoint x="230" y="-480" as="sourcePoint" />
            <mxPoint x="280" y="-530" as="targetPoint" />
          </mxGeometry>
        </mxCell>
        <mxCell id="6BM6vpleSpneftJprQCP-189" value="" style="endArrow=none;html=1;rounded=0;fontSize=12;startSize=8;endSize=8;entryX=0;entryY=0.5;entryDx=0;entryDy=0;exitX=1;exitY=0.5;exitDx=0;exitDy=0;edgeStyle=orthogonalEdgeStyle;fillColor=#d0cee2;strokeColor=#56517e;" edge="1" source="6BM6vpleSpneftJprQCP-193" target="6BM6vpleSpneftJprQCP-192" parent="1">
          <mxGeometry width="50" height="50" relative="1" as="geometry">
            <mxPoint x="-60" y="-474" as="sourcePoint" />
            <mxPoint x="-10" y="-524" as="targetPoint" />
          </mxGeometry>
        </mxCell>
        <mxCell id="6BM6vpleSpneftJprQCP-191" value="" style="endArrow=none;html=1;rounded=0;fontSize=12;startSize=8;endSize=8;entryX=0;entryY=0.5;entryDx=0;entryDy=0;exitX=1;exitY=0.5;exitDx=0;exitDy=0;edgeStyle=orthogonalEdgeStyle;fillColor=#d0cee2;strokeColor=#56517e;" edge="1" source="6BM6vpleSpneftJprQCP-195" target="6BM6vpleSpneftJprQCP-192" parent="1">
          <mxGeometry width="50" height="50" relative="1" as="geometry">
            <mxPoint x="-60" y="-474" as="sourcePoint" />
            <mxPoint x="-10" y="-524" as="targetPoint" />
          </mxGeometry>
        </mxCell>
        <mxCell id="6BM6vpleSpneftJprQCP-192" value="VILLAGES" style="rounded=0;whiteSpace=wrap;html=1;strokeColor=#56517e;fillColor=#d0cee2;" vertex="1" parent="1">
          <mxGeometry x="-60" y="-570" width="80" height="40" as="geometry" />
        </mxCell>
        <mxCell id="6BM6vpleSpneftJprQCP-193" value="id" style="ellipse;whiteSpace=wrap;html=1;strokeColor=#56517e;fillColor=#d0cee2;" vertex="1" parent="1">
          <mxGeometry x="-200" y="-614" width="80" height="40" as="geometry" />
        </mxCell>
        <mxCell id="6BM6vpleSpneftJprQCP-195" value="note" style="ellipse;whiteSpace=wrap;html=1;strokeColor=#56517e;fillColor=#d0cee2;" vertex="1" parent="1">
          <mxGeometry x="-200" y="-526" width="80" height="40" as="geometry" />
        </mxCell>
        <mxCell id="6BM6vpleSpneftJprQCP-196" value="" style="endArrow=none;html=1;rounded=0;fontSize=12;startSize=8;endSize=8;entryX=0;entryY=0.5;entryDx=0;entryDy=0;exitX=1;exitY=0.5;exitDx=0;exitDy=0;edgeStyle=orthogonalEdgeStyle;fillColor=#d0cee2;strokeColor=#56517e;" edge="1" source="6BM6vpleSpneftJprQCP-199" target="6BM6vpleSpneftJprQCP-198" parent="1">
          <mxGeometry width="50" height="50" relative="1" as="geometry">
            <mxPoint x="-60" y="-334" as="sourcePoint" />
            <mxPoint x="-10" y="-384" as="targetPoint" />
          </mxGeometry>
        </mxCell>
        <mxCell id="6BM6vpleSpneftJprQCP-197" value="" style="endArrow=none;html=1;rounded=0;fontSize=12;startSize=8;endSize=8;entryX=0;entryY=0.5;entryDx=0;entryDy=0;exitX=1;exitY=0.5;exitDx=0;exitDy=0;edgeStyle=orthogonalEdgeStyle;fillColor=#d0cee2;strokeColor=#56517e;" edge="1" source="6BM6vpleSpneftJprQCP-200" target="6BM6vpleSpneftJprQCP-198" parent="1">
          <mxGeometry width="50" height="50" relative="1" as="geometry">
            <mxPoint x="-60" y="-334" as="sourcePoint" />
            <mxPoint x="-10" y="-384" as="targetPoint" />
          </mxGeometry>
        </mxCell>
        <mxCell id="6BM6vpleSpneftJprQCP-198" value="DISTRICTS" style="rounded=0;whiteSpace=wrap;html=1;strokeColor=#56517e;fillColor=#d0cee2;" vertex="1" parent="1">
          <mxGeometry x="-60" y="-430" width="80" height="40" as="geometry" />
        </mxCell>
        <mxCell id="6BM6vpleSpneftJprQCP-199" value="id" style="ellipse;whiteSpace=wrap;html=1;strokeColor=#56517e;fillColor=#d0cee2;" vertex="1" parent="1">
          <mxGeometry x="-200" y="-474" width="80" height="40" as="geometry" />
        </mxCell>
        <mxCell id="6BM6vpleSpneftJprQCP-200" value="note" style="ellipse;whiteSpace=wrap;html=1;strokeColor=#56517e;fillColor=#d0cee2;" vertex="1" parent="1">
          <mxGeometry x="-200" y="-386" width="80" height="40" as="geometry" />
        </mxCell>
        <mxCell id="6BM6vpleSpneftJprQCP-201" value="" style="endArrow=none;html=1;rounded=0;fontSize=12;startSize=8;endSize=8;entryX=0.5;entryY=0;entryDx=0;entryDy=0;exitX=1;exitY=0.5;exitDx=0;exitDy=0;edgeStyle=orthogonalEdgeStyle;" edge="1" parent="1" source="6BM6vpleSpneftJprQCP-198" target="6BM6vpleSpneftJprQCP-146">
          <mxGeometry width="50" height="50" relative="1" as="geometry">
            <mxPoint x="-200" y="-220" as="sourcePoint" />
            <mxPoint x="-150" y="-270" as="targetPoint" />
          </mxGeometry>
        </mxCell>
        <mxCell id="6BM6vpleSpneftJprQCP-202" value="" style="endArrow=none;html=1;rounded=0;fontSize=12;startSize=8;endSize=8;entryX=0.5;entryY=0;entryDx=0;entryDy=0;exitX=1;exitY=0.5;exitDx=0;exitDy=0;edgeStyle=orthogonalEdgeStyle;" edge="1" parent="1" source="6BM6vpleSpneftJprQCP-192" target="6BM6vpleSpneftJprQCP-146">
          <mxGeometry width="50" height="50" relative="1" as="geometry">
            <mxPoint x="-200" y="-220" as="sourcePoint" />
            <mxPoint x="-150" y="-270" as="targetPoint" />
          </mxGeometry>
        </mxCell>
        <mxCell id="6BM6vpleSpneftJprQCP-203" value="" style="endArrow=none;html=1;rounded=0;fontSize=12;startSize=8;endSize=8;entryX=0.5;entryY=0;entryDx=0;entryDy=0;edgeStyle=orthogonalEdgeStyle;" edge="1" parent="1" source="6BM6vpleSpneftJprQCP-175" target="6BM6vpleSpneftJprQCP-146">
          <mxGeometry width="50" height="50" relative="1" as="geometry">
            <mxPoint x="-200" y="-220" as="sourcePoint" />
            <mxPoint x="-150" y="-270" as="targetPoint" />
          </mxGeometry>
        </mxCell>
        <mxCell id="6BM6vpleSpneftJprQCP-204" value="" style="endArrow=none;html=1;rounded=0;fontSize=12;startSize=8;endSize=8;entryX=0.5;entryY=0;entryDx=0;entryDy=0;edgeStyle=orthogonalEdgeStyle;exitX=0;exitY=0.5;exitDx=0;exitDy=0;" edge="1" parent="1" source="6BM6vpleSpneftJprQCP-182" target="6BM6vpleSpneftJprQCP-146">
          <mxGeometry width="50" height="50" relative="1" as="geometry">
            <mxPoint x="-200" y="-220" as="sourcePoint" />
            <mxPoint x="-150" y="-270" as="targetPoint" />
          </mxGeometry>
        </mxCell>
      </root>
    </mxGraphModel>
  </diagram>
</mxfile>
